<svg width="1169" height="766" viewBox="0 0 1169 766" fill="none" xmlns="http://www.w3.org/2000/svg">
<path opacity="0.1" d="M679.288 126.133C604.359 123.585 532.996 99.9325 464.84 74.0493C396.683 48.1661 329.199 19.4862 256.064 5.77466C209.025 -3.04557 155.237 -4.29105 117.332 20.3694C80.8637 44.1466 69.0779 85.0774 62.7335 123.087C57.9752 151.699 55.1619 181.794 68.2327 208.572C77.2979 227.163 93.402 242.788 104.539 260.599C143.277 322.555 115.897 398.96 73.9057 459.456C54.2241 487.83 31.3703 514.936 16.1692 545.122C0.968075 575.308 -6.05941 609.943 7.23145 640.763C20.4181 671.334 51.8276 694.25 85.842 710.385C154.947 743.152 236.348 752.539 315.792 757.849C491.56 769.613 668.278 764.518 844.509 759.423C909.736 757.532 975.241 755.618 1039.4 745.756C1075.04 740.276 1111.83 731.581 1137.69 710.657C1170.53 684.015 1178.67 638.895 1156.67 605.493C1119.76 549.458 1017.74 535.532 991.912 475.398C977.707 442.302 992.294 405.425 1012.93 374.73C1057.2 308.867 1131.4 251.099 1135.31 175.816C1138 124.117 1102.33 72.3396 1047.17 47.8717C989.354 22.2263 909.192 25.4532 866.564 67.9012C822.616 111.561 745.441 128.375 679.288 126.133Z" fill="#343A40"/>
<g opacity="0.8">
<path opacity="0.8" d="M209.257 392.257H932.914" stroke="#3F3D56" stroke-width="3" stroke-miterlimit="10"/>
<path opacity="0.8" d="M273.546 392.245C273.546 392.245 308.151 396.944 290.229 360.633C272.307 324.322 338.854 331.194 338.854 331.194" stroke="#3F3D56" stroke-width="3" stroke-miterlimit="10"/>
<path opacity="0.8" d="M504.018 392.245C504.018 392.245 538.622 387.558 520.701 423.869C502.779 460.18 569.326 453.307 569.326 453.307" stroke="#3F3D56" stroke-width="3" stroke-miterlimit="10"/>
<path opacity="0.8" d="M835.86 392.245C835.86 392.245 801.244 387.558 819.177 423.869C837.111 460.18 770.552 453.307 770.552 453.307" stroke="#3F3D56" stroke-width="3" stroke-miterlimit="10"/>
<path opacity="0.8" d="M770.552 453.296H579.606" stroke="#3F3D56" stroke-width="3" stroke-miterlimit="10"/>
<path opacity="0.8" d="M209.257 412.92C220.926 412.92 230.386 403.669 230.386 392.257C230.386 380.844 220.926 371.593 209.257 371.593C197.588 371.593 188.128 380.844 188.128 392.257C188.128 403.669 197.588 412.92 209.257 412.92Z" fill="#343A40"/>
<path opacity="0.8" d="M339.213 351.564C350.882 351.564 360.342 342.312 360.342 330.9C360.342 319.488 350.882 310.236 339.213 310.236C327.544 310.236 318.085 319.488 318.085 330.9C318.085 342.312 327.544 351.564 339.213 351.564Z" fill="#3ACC6C"/>
<path opacity="0.8" d="M339.213 412.92C350.882 412.92 360.342 403.669 360.342 392.257C360.342 380.844 350.882 371.593 339.213 371.593C327.544 371.593 318.085 380.844 318.085 392.257C318.085 403.669 327.544 412.92 339.213 412.92Z" fill="#343A40"/>
<path opacity="0.8" d="M423.08 412.92C434.749 412.92 444.209 403.669 444.209 392.257C444.209 380.844 434.749 371.593 423.08 371.593C411.411 371.593 401.951 380.844 401.951 392.257C401.951 403.669 411.411 412.92 423.08 412.92Z" fill="#343A40"/>
<path opacity="0.8" d="M569.673 473.654C581.342 473.654 590.802 464.403 590.802 452.99C590.802 441.578 581.342 432.327 569.673 432.327C558.004 432.327 548.544 441.578 548.544 452.99C548.544 464.403 558.004 473.654 569.673 473.654Z" fill="#FF6584"/>
<path opacity="0.8" d="M680.445 473.654C692.115 473.654 701.574 464.403 701.574 452.99C701.574 441.578 692.115 432.327 680.445 432.327C668.776 432.327 659.317 441.578 659.317 452.99C659.317 464.403 668.776 473.654 680.445 473.654Z" fill="#FF6584"/>
<path opacity="0.8" d="M674.668 412.92C686.337 412.92 695.797 403.669 695.797 392.257C695.797 380.844 686.337 371.593 674.668 371.593C662.999 371.593 653.539 380.844 653.539 392.257C653.539 403.669 662.999 412.92 674.668 412.92Z" fill="#343A40"/>
<path opacity="0.8" d="M927.565 412.92C939.234 412.92 948.694 403.669 948.694 392.257C948.694 380.844 939.234 371.593 927.565 371.593C915.896 371.593 906.436 380.844 906.436 392.257C906.436 403.669 915.896 412.92 927.565 412.92Z" fill="#343A40"/>
<path opacity="0.8" d="M824.109 412.92C835.778 412.92 845.238 403.669 845.238 392.257C845.238 380.844 835.778 371.593 824.109 371.593C812.44 371.593 802.981 380.844 802.981 392.257C802.981 403.669 812.44 412.92 824.109 412.92Z" fill="#343A40"/>
</g>
</svg>
